<svg version="1.1" id="Layer_1" xmlns="http://www.w3.org/2000/svg" xmlns:xlink="http://www.w3.org/1999/xlink" x="0px" y="0px"
	 width="100%" viewBox="0 0 496 496" enable-background="new 0 0 496 496" xml:space="preserve">
<path fill="#000000" opacity="1.000000" stroke="none" 
	d="
M303.500427,168.524567 
	C307.064087,163.671402 310.425690,159.119003 313.764252,154.549805 
	C313.944641,154.302948 313.932343,153.915344 314.075745,153.318466 
	C310.341919,149.425629 304.786072,147.462112 300.310150,142.314224 
	C320.319550,142.314224 339.140381,142.314224 359.665955,142.314224 
	C321.712158,193.197327 284.411346,243.205032 247.357941,292.881042 
	C245.266525,292.751770 244.568680,291.793549 243.883743,290.854828 
	C227.780121,268.784912 211.523468,246.824020 195.658157,224.583969 
	C188.772751,214.932007 182.997681,204.556152 181.342545,192.483704 
	C179.770248,181.015427 183.938095,173.214828 194.391586,168.128967 
	C200.269608,165.269165 206.444946,163.320435 213.018295,162.831757 
	C229.560669,161.601990 241.360458,169.132751 245.966843,184.984970 
	C248.855972,194.927597 251.249573,204.719116 262.553558,208.820114 
	C257.520477,212.890671 253.778473,213.002731 247.995544,209.606140 
	C242.068954,206.125168 238.228836,200.615585 234.374008,195.191025 
	C231.289658,190.850677 228.396149,186.362289 225.634415,181.808319 
	C222.342255,176.379715 217.895340,172.749832 211.206467,171.696075 
	C205.606186,177.568634 206.551834,184.359528 209.183212,191.064987 
	C214.768143,205.296921 224.714050,216.594116 234.795792,227.705795 
	C239.105255,232.455490 243.198761,237.523193 248.953201,241.374390 
	C267.184692,217.032547 285.239105,192.927170 303.500427,168.524567 
z"/>
<path fill="#000000" opacity="1.000000" stroke="none" 
	d="
M287.017181,144.019363 
	C281.266449,138.584579 274.857697,139.782578 268.419159,142.313354 
	C262.461670,144.655090 257.745544,149.018677 252.493835,152.504028 
	C243.091064,158.744247 233.131348,161.209732 221.784042,158.905029 
	C211.988846,156.915573 202.690201,159.619934 193.962051,164.276947 
	C192.540070,165.035660 191.380096,166.386566 189.556152,166.330612 
	C191.185120,157.384033 217.868500,133.945770 227.729263,137.336639 
	C230.672195,130.311829 230.742294,130.488159 238.781418,130.612762 
	C253.903442,130.847153 268.965057,130.493057 282.272186,121.713623 
	C283.802673,120.703880 285.226990,120.536987 286.761475,121.959045 
	C291.052032,125.935272 292.544250,138.742813 289.129150,143.573151 
	C288.909149,143.884338 288.236633,143.875610 287.386475,144.007736 
	C286.998383,143.999756 287.017181,144.019363 287.017181,144.019363 
M241.930786,137.767883 
	C234.791565,136.013550 233.425873,136.760208 233.585815,142.697098 
	C238.939972,142.479858 244.430923,143.901855 250.117584,141.119553 
	C247.438156,139.238937 245.007645,138.720154 241.930786,137.767883 
z"/>
<path fill="#000000" opacity="1.000000" stroke="none" 
	d="
M179.564087,173.586670 
	C176.146347,181.273697 175.610535,188.957550 175.789993,197.366669 
	C162.373306,179.413315 148.956635,161.459946 134.717270,142.405731 
	C155.078888,142.405731 173.978851,142.405731 193.882141,142.405731 
	C189.540161,147.279144 184.173218,149.385315 180.204376,152.885010 
	C180.204376,153.493454 180.065277,153.990158 180.224319,154.119110 
	C188.364792,160.718430 183.101288,166.955322 179.564087,173.586670 
z"/>
<path fill="#000000" opacity="1.000000" stroke="none" 
	d="
M192.346024,334.553345 
	C187.685623,327.418610 187.444672,320.770020 191.414413,315.195129 
	C194.963257,310.211273 201.482559,307.700531 207.251434,309.095978 
	C213.718796,310.660370 218.561432,315.706482 219.278351,321.628204 
	C220.188156,329.143036 217.160751,335.112762 210.864090,338.220398 
	C204.663788,341.280426 198.363937,340.116516 192.346024,334.553345 
M207.773193,330.250641 
	C211.278336,326.794525 211.996506,322.762970 209.433334,319.829926 
	C206.947357,316.985229 203.764633,316.367645 200.489929,318.193787 
	C196.845322,320.226166 196.396683,323.669098 197.668304,327.250122 
	C198.941025,330.834229 202.728317,332.047638 207.773193,330.250641 
z"/>
<path fill="#000000" opacity="1.000000" stroke="none" 
	d="
M228.700806,334.827637 
	C228.695999,327.373596 228.783051,320.397888 228.662720,313.425781 
	C228.608734,310.297821 229.767548,308.732941 232.983521,308.855865 
	C236.622437,308.994965 240.287659,308.449768 243.898392,309.321838 
	C250.854385,311.001862 254.399109,318.344208 250.032227,323.930542 
	C246.744675,328.136169 248.238800,330.589691 250.676468,333.768402 
	C251.736862,335.151123 253.351990,336.349945 253.108902,338.477570 
	C244.167282,342.827118 242.529358,334.338104 238.445190,329.770203 
	C236.801880,331.516266 237.372681,333.381958 237.310822,335.029816 
	C237.222031,337.394867 236.943451,339.313690 233.867279,339.346375 
	C230.964127,339.377197 228.381332,339.278229 228.700806,334.827637 
M241.291153,316.840607 
	C239.681564,316.594360 237.899704,316.077606 237.440567,318.430695 
	C237.226547,319.527496 237.142059,320.845612 238.487244,321.362396 
	C239.925598,321.914948 241.406998,321.803223 242.543655,320.613007 
	C243.929855,319.161499 243.369797,318.002747 241.291153,316.840607 
z"/>
<path fill="#000000" opacity="1.000000" stroke="none" 
	d="
M333.161011,309.631226 
	C336.055786,308.711090 338.602753,308.412628 341.387970,309.691162 
	C340.365387,314.050171 337.325073,317.020782 335.114380,320.393829 
	C333.500885,322.855743 333.398895,324.697998 335.145508,327.090790 
	C337.747375,330.655182 340.015717,334.462952 342.511536,338.298676 
	C334.871155,341.773041 331.514618,336.960693 328.595337,331.919952 
	C325.086456,333.789886 325.151306,338.421722 321.472382,339.147400 
	C319.263336,339.583191 316.882477,339.811768 314.331146,338.501007 
	C315.717712,334.133423 318.799622,330.814423 321.259033,327.192749 
	C323.003906,324.623230 323.118103,322.679077 321.214111,320.099396 
	C318.913971,316.983124 316.361359,313.915039 314.832275,310.028320 
	C321.460114,306.900085 324.870148,310.372986 327.506226,315.244293 
	C330.476471,314.252472 330.913696,311.326447 333.161011,309.631226 
z"/>
<path fill="#000000" opacity="1.000000" stroke="none" 
	d="
M171.490112,314.547943 
	C173.744598,308.349640 175.399475,307.657257 182.397736,310.239777 
	C179.034805,319.363770 175.822037,328.562500 172.203812,337.598877 
	C171.138412,340.259644 163.217819,340.328918 162.175247,337.694611 
	C158.591507,328.639313 155.422943,319.419708 152.109329,310.299011 
	C158.897263,307.567841 160.934723,308.404907 162.873520,314.141479 
	C163.936295,317.285980 164.996170,320.431458 166.064377,323.574097 
	C166.275909,324.196472 166.519455,324.807983 167.016327,326.146881 
	C169.435593,322.384155 169.880692,318.429901 171.490112,314.547943 
z"/>
<path fill="#000000" opacity="1.000000" stroke="none" 
	d="
M307.450439,336.948700 
	C307.241394,339.519073 305.576813,339.331787 304.094147,339.342651 
	C300.434814,339.369507 296.766998,339.197479 293.117950,339.392487 
	C289.527130,339.584351 288.550446,337.916077 288.624420,334.611389 
	C288.780701,327.628479 288.785522,320.636963 288.622131,313.654358 
	C288.542633,310.257141 289.795502,308.721985 293.232910,308.857056 
	C296.055969,308.967987 298.887909,308.829559 301.715240,308.861267 
	C307.621460,308.927460 308.033936,309.498779 306.842407,315.779114 
	C305.501892,316.681274 303.929352,316.123871 302.507568,316.432861 
	C300.675201,316.831116 297.456757,315.101440 297.468262,318.607880 
	C297.478241,321.646637 300.447388,320.626068 302.193512,320.610107 
	C305.727814,320.577911 306.429169,322.466797 306.095123,325.410095 
	C305.818420,327.848267 304.090942,328.069092 302.140076,328.247650 
	C300.502075,328.397614 298.342743,327.471497 297.506348,330.031311 
	C298.557770,332.637756 300.893341,331.756531 302.651398,331.698090 
	C306.222107,331.579437 308.096252,332.740448 307.450439,336.948700 
z"/>
<path fill="#000000" opacity="1.000000" stroke="none" 
	d="
M265.657562,331.931519 
	C265.654877,328.614319 265.554779,325.783081 265.677582,322.961548 
	C265.840576,319.216492 265.908844,315.865814 260.520020,316.192780 
	C258.283630,316.328461 258.228302,314.171936 258.277252,312.480347 
	C258.329468,310.677277 258.940186,309.030823 261.043518,308.997864 
	C266.858429,308.906738 272.677887,308.890625 278.491333,309.026001 
	C280.920044,309.082550 281.223663,311.008575 281.212738,312.989197 
	C281.202271,314.883789 280.624115,316.419434 278.451569,316.297241 
	C274.208954,316.058655 274.105957,318.739532 274.176788,321.819092 
	C274.272369,325.974060 274.145905,330.133728 274.209045,334.289948 
	C274.254333,337.270142 273.821167,339.398834 269.953247,339.420837 
	C266.145447,339.442474 265.462799,337.487610 265.661957,334.416840 
	C265.704926,333.754669 265.662476,333.086975 265.657562,331.931519 
z"/>
<path fill="#000000" opacity="1.000000" stroke="none" 
	d="
M275.522400,146.218704 
	C272.012268,154.344955 269.294586,156.484283 263.986115,155.576431 
	C267.612000,149.505264 267.612000,149.505264 265.138092,146.251465 
	C267.752045,143.595490 270.717285,141.535095 274.624481,142.164459 
	C276.671387,142.494156 276.105560,144.376236 275.522400,146.218704 
z"/>
<path fill="#000000" opacity="1.000000" stroke="none" 
	d="
M256.847931,172.269608 
	C259.546082,166.632462 264.295319,163.861069 269.597931,161.150513 
	C260.702545,168.895844 256.625275,177.632492 263.683563,189.619919 
	C257.416748,185.821808 255.017563,178.907974 256.847931,172.269608 
z"/>
<path fill="#000000" opacity="1.000000" stroke="none" 
	d="
M286.988037,143.990784 
	C287.957489,151.302139 283.908417,158.078903 277.194397,159.768478 
	C277.429718,154.578888 283.702942,150.159592 278.692627,144.404755 
	C281.384338,143.285385 283.780884,143.682098 286.589539,143.971405 
	C287.017181,144.019363 286.998383,143.999756 286.988037,143.990784 
z"/>
<path fill="#000000" opacity="1.000000" stroke="none" 
	d="
M265.736938,200.780884 
	C264.585846,199.641556 263.149536,198.674332 263.287750,196.281876 
	C267.056763,198.038315 270.698456,200.129257 274.952698,197.626816 
	C274.373596,203.424286 272.177704,204.314514 266.458496,201.309631 
	C266.023621,201.016418 265.736938,200.780884 265.736938,200.780884 
z"/>
<path fill="#000000" opacity="1.000000" stroke="none" 
	d="
M266.168457,201.132324 
	C266.269592,204.375626 264.486877,206.649414 261.640594,206.676865 
	C258.219086,206.709885 255.653656,204.486801 253.651886,200.245026 
	C257.992065,202.240387 261.565247,203.250778 265.447876,200.974365 
	C265.736938,200.780884 266.023621,201.016418 266.168457,201.132324 
z"/>
</svg>